<?xml version="1.0" encoding="utf-8"?>
<svg version="1.1" id="Warstwa_1" xmlns="http://www.w3.org/2000/svg" xmlns:xlink="http://www.w3.org/1999/xlink" x="0px" y="0px"
	 viewBox="0 0 108 27" style="enable-background:new 0 0 108 27;" xml:space="preserve">
<style type="text/css">
	.st0{fill:#FFFFFF;}
</style>
<path id="path4759" class="st0" d="M38.7,1.6c-0.3,0.3-0.3,24.3,0,24.6c0.3,0.3,4.3,0.3,4.6-0.1c0.4-0.4,0.4-24.1,0-24.5
	C43,1.3,39,1.3,38.7,1.6"/>
<g id="g4792">
	<path id="path4757" class="st0" d="M0.4,1.7C0.4,2,1.2,2.9,7,9.3c2.2,2.4,4.4,4.8,4.9,5.3c2.6,2.8,2.4,2.7,3.6,1.4
		c0.5-0.6,1.6-1.8,2.5-2.7c1.6-1.7,6.2-6.8,9-9.8c0.9-1,1.3-1.6,1.3-1.8c-0.2-0.6-5.7-0.2-5.8,0.4c0,0.1-0.5,0.7-1.1,1.3
		s-1.8,2-2.8,3.1c-0.9,1-2.3,2.5-3,3.3L14.4,11L13,9.6c-0.8-0.8-2.1-2.3-3.1-3.4C9,5.2,7.6,3.7,6.9,2.9L5.5,1.5L3,1.4
		C0.7,1.4,0.4,1.4,0.4,1.7"/>
	<path id="path4755" class="st0" d="M0.1,14.6c0,8.7,0.1,11.5,0.2,11.6c0.3,0.3,4,0.3,4.3,0c0.2-0.2,0.2-2.5,0.2-9.3V8L4.1,7.1
		C2.2,5,0.5,3.2,0.3,3.2C0.1,3.2,0.1,5.3,0.1,14.6"/>
	<path id="path4753" class="st0" d="M26.5,5c-0.9,1-1.9,2.1-2.1,2.4L23.9,8v9c0,6.8,0.1,9.1,0.2,9.2c0.3,0.3,3.7,0.3,4.2,0
		c0.4-0.2,0.5-23.1,0.1-23.1C28.3,3.2,27.4,4,26.5,5"/>
</g>
<g id="g4787" transform="translate(-12.767175)">
	<path id="path4763" class="st0" d="M71.6,20.3c0.5-0.6,6-6.1,6.9-7.1c1.6-1.7,6.2-6.8,9-9.8c0.9-1,1.3-1.6,1.3-1.8
		C88.5,1.1,83,1.4,83,2.1c0,0.1-0.5,0.7-1.1,1.3s-1.8,2-2.8,3.1c-0.9,1-2.3,2.5-3,3.3l-4.8,5"/>
	<path id="path4765" class="st0" d="M87,5c-0.9,1-1.9,2.1-2.1,2.4L84.4,8v9c0,6.8,0.1,9.1,0.2,9.2c0.3,0.3,3.7,0.3,4.2,0
		c0.4-0.2,0.5-23.1,0.1-23.1C88.8,3.2,87.9,4,87,5"/>
	<path id="path4767" class="st0" d="M68.3,25c0.9-1.1,1.9-2.3,2.1-2.7l0.5-0.7V11.4C71,3.8,70.9,1.2,70.7,1c-0.3-0.3-3.7-0.3-4.2,0
		c-0.4,0.3-0.5,26-0.1,26C66.6,27,67.4,26.1,68.3,25"/>
</g>
<path id="path4761" class="st0" d="M91.3,0.2c-1.1,0-2.2,0.1-3.2,0.3c2.2,2.2,7.3,3.6,8.8,4.5c3.9,1.9,6.4,5,6.8,8.1h4.4
	c-0.6-6.4-3.9-9.2-8.9-11.8C98,0.9,94.6,0.2,91.3,0.2z M103.9,13.9c0.2,3.8-2.7,7.5-9.4,8.7L90.9,23l-3.8,3.9l7.2-0.1
	c6.6-0.6,12.8-5.7,14-11.4c0-0.5,0-1,0-1.4H103.9z M108.3,15.4c0,0.1,0,0.2,0,0.3L108.3,15.4C108.3,15.4,108.3,15.4,108.3,15.4z"/>
<path id="path4778" class="st0" d="M86.5,26.3c0-0.7-0.3-8.6-0.3-9.8c0-2.3,0-9.2,0-13.3c0-1.3,0.1-2.1,0.3-2.2
	c0.6-0.3,4.6,2.8,4.2,3.3c-0.1,0.1-0.3,1.7-0.3,2.6s0,2.7,0,4.1c0,1.4,0,3.4,0,4.4l0.1,7"/>
</svg>
